<svg width="22" height="22" viewBox="0 0 22 22" fill="none" xmlns="http://www.w3.org/2000/svg">
<path d="M21.0016 11.0008C21.0016 16.5241 16.5241 21.0016 11.0008 21.0016M21.0016 11.0008C21.0016 5.47751 16.5241 1 11.0008 1M21.0016 11.0008H1M11.0008 21.0016C5.47751 21.0016 1 16.5241 1 11.0008M11.0008 21.0016C8.43283 18.3052 7.00048 14.7244 7.00048 11.0008C7.00048 7.27724 8.43283 3.69637 11.0008 1M11.0008 21.0016C13.5688 18.3052 15.0011 14.7244 15.0011 11.0008C15.0011 7.27724 13.5688 3.69637 11.0008 1M11.0008 1C5.47751 1 1 5.47751 1 11.0008" stroke="#D92B2B" style="stroke:#D92B2B;stroke:color(display-p3 0.8510 0.1686 0.1686);stroke-opacity:1;" stroke-width="2" stroke-linecap="round"/>
</svg>
