<svg width="32" height="32" viewBox="0 0 32 32" fill="none" xmlns="http://www.w3.org/2000/svg">
<path d="M19.739 22.9459C19.4083 23.0285 19.0592 22.996 18.7494 22.8537C14.5827 20.8088 11.2108 17.4411 9.16065 13.277C9.00881 12.9655 8.96948 12.6111 9.04933 12.2739C9.12918 11.9368 9.32329 11.6376 9.59869 11.4273L10.3007 10.9008C10.6734 10.6213 10.9758 10.2589 11.1841 9.84235C11.3924 9.42575 11.5008 8.96637 11.5008 8.5006V4.00024C11.5008 3.20453 11.1847 2.4414 10.6221 1.87875C10.0594 1.3161 9.29631 1 8.5006 1H4.00024C3.20453 1 2.4414 1.3161 1.87875 1.87875C1.3161 2.4414 1 3.20453 1 4.00024C1 11.1617 3.84486 18.0298 8.90875 23.0937C13.9726 28.1575 20.8407 31.0024 28.0022 31.0024C28.7979 31.0024 29.561 30.6863 30.1236 30.1236C30.6863 29.561 31.0024 28.7979 31.0024 28.0022V23.5018C31.0024 22.7061 30.6863 21.943 30.1236 21.3803C29.561 20.8177 28.7979 20.5016 28.0022 20.5016H23.5018C23.036 20.5016 22.5767 20.61 22.1601 20.8183C21.7435 21.0266 21.3811 21.329 21.1016 21.7017L20.5691 22.3992C20.3625 22.6705 20.0698 22.8633 19.739 22.9459Z" stroke="#D92B2B" style="stroke:#D92B2B;stroke:color(display-p3 0.8510 0.1686 0.1686);stroke-opacity:1;" stroke-width="2" stroke-linecap="round"/>
</svg>
