<svg width="36" height="36" viewBox="0 0 36 36" fill="none" xmlns="http://www.w3.org/2000/svg">
<path d="M17.668 31.0024V34.336M17.668 1V4.3336M26.002 31.0024V34.336M26.002 1V4.3336M1 17.668H4.3336M1 26.002H4.3336M1 9.334H4.3336M31.0024 17.668H34.336M31.0024 26.002H34.336M31.0024 9.334H34.336M9.334 31.0024V34.336M9.334 1V4.3336M7.6672 4.3336H27.6688C29.5099 4.3336 31.0024 5.8261 31.0024 7.6672V27.6688C31.0024 29.5099 29.5099 31.0024 27.6688 31.0024H7.6672C5.8261 31.0024 4.3336 29.5099 4.3336 27.6688V7.6672C4.3336 5.8261 5.8261 4.3336 7.6672 4.3336ZM12.6676 11.0008H22.6684C23.5889 11.0008 24.3352 11.7471 24.3352 12.6676V22.6684C24.3352 23.5889 23.5889 24.3352 22.6684 24.3352H12.6676C11.7471 24.3352 11.0008 23.5889 11.0008 22.6684V12.6676C11.0008 11.7471 11.7471 11.0008 12.6676 11.0008Z" stroke="white" style="stroke:white;stroke-opacity:1;" stroke-width="2" stroke-linecap="round"/>
</svg>
